<svg width="1997" height="203" viewBox="0 0 1997 203" fill="none" xmlns="http://www.w3.org/2000/svg">
<path d="M29.696 0.399986H147.776L74.336 202.288L0.896 0.399986H10.112L74.336 176.944L135.392 9.04H29.696V0.399986ZM189.808 202H181.168V0.399986H189.808V202ZM366.508 0.399986V9.04H298.828V202H290.188V9.04H222.508V0.399986H366.508ZM502.81 96.592H417.274L505.402 9.04H408.058V193.36H519.802V202H399.418V0.399986H526.426L438.298 87.952H502.81V96.592ZM753.685 96.592H668.149L756.277 9.04H658.933V202H650.293V0.399986H777.301L689.173 87.952H753.685V96.592ZM912.029 96.592H826.493L914.621 9.04H817.277V202H808.637V0.399986H935.645L847.517 87.952H912.029V96.592ZM1087.36 193.36V202H966.981V0.399986H975.621V193.36H1087.36ZM1125.45 193.36H1231.43L1170.37 25.456L1106.15 202H1096.93L1170.37 0.11199L1243.81 202H1125.45V193.36ZM1397.29 0.399986V9.04H1329.61V202H1320.97V9.04H1253.29V0.399986H1397.29ZM1533.59 96.592H1448.06L1536.18 9.04H1438.84V193.36H1550.58V202H1430.2V0.399986H1557.21L1469.08 87.952H1533.59V96.592ZM1778.99 202H1661.49L1764.02 9.04H1668.98V0.399986H1778.42L1675.89 193.36H1778.99V202ZM1828.09 202H1819.45V0.399986H1828.09V202ZM1956.4 105.232L1952.08 97.744L1968.21 88.528C1981.46 81.232 1988.08 69.616 1988.08 53.68C1988.08 23.92 1965.43 9.04 1920.12 9.04H1893.62V202H1884.98V0.399986H1920.12C1945.46 0.399986 1964.56 5.10399 1977.43 14.512C1990.29 23.728 1996.72 36.784 1996.72 53.68C1996.72 72.88 1988.66 86.992 1972.53 96.016L1956.4 105.232Z" fill="url(#paint0_linear_27_2)"/>
<defs>
<linearGradient id="paint0_linear_27_2" x1="-3.99998" y1="101.714" x2="2009" y2="101.714" gradientUnits="userSpaceOnUse">
<stop stop-color="#FFC517"/>
<stop offset="1" stop-color="#42B883"/>
</linearGradient>
</defs>
</svg>
